<?xml version="1.0" encoding="UTF-8" standalone="no"?>
<!DOCTYPE svg PUBLIC "-//W3C//DTD SVG 1.1//EN"
 "http://www.w3.org/Graphics/SVG/1.1/DTD/svg11.dtd">
<!-- Generated by graphviz version 2.43.0 (0)
 -->
<!-- Title: G Pages: 1 -->
<svg width="278pt" height="291pt"
 viewBox="0.00 0.00 278.00 291.00" xmlns="http://www.w3.org/2000/svg" xmlns:xlink="http://www.w3.org/1999/xlink">
<g id="graph0" class="graph" transform="scale(1 1) rotate(0) translate(4 287)">
<title>G</title>
<polygon fill="white" stroke="transparent" points="-4,4 -4,-287 274,-287 274,4 -4,4"/>
<!-- node1 -->
<g id="node1" class="node">
<title>node1</title>
<ellipse fill="none" stroke="black" cx="134" cy="-265" rx="27" ry="18"/>
<text text-anchor="middle" x="134" y="-261.3" font-family="Times,serif" font-size="14.00">7</text>
</g>
<!-- node2 -->
<g id="node2" class="node">
<title>node2</title>
<ellipse fill="none" stroke="black" cx="99" cy="-178" rx="27" ry="18"/>
<text text-anchor="middle" x="99" y="-174.3" font-family="Times,serif" font-size="14.00">5</text>
</g>
<!-- node1&#45;&#45;node2 -->
<g id="edge1" class="edge">
<title>node1&#45;&#45;node2</title>
<path fill="none" stroke="black" d="M127.09,-247.21C120.91,-232.21 111.92,-210.37 105.78,-195.47"/>
<text text-anchor="middle" x="128.5" y="-217.8" font-family="Times,serif" font-size="14.00"> &#45;2</text>
</g>
<!-- node5 -->
<g id="node5" class="node">
<title>node5</title>
<ellipse fill="none" stroke="black" cx="171" cy="-178" rx="27" ry="18"/>
<text text-anchor="middle" x="171" y="-174.3" font-family="Times,serif" font-size="14.00">4</text>
</g>
<!-- node1&#45;&#45;node5 -->
<g id="edge2" class="edge">
<title>node1&#45;&#45;node5</title>
<path fill="none" stroke="black" d="M141.13,-247.61C147.64,-232.66 157.22,-210.66 163.76,-195.63"/>
<text text-anchor="middle" x="163.5" y="-217.8" font-family="Times,serif" font-size="14.00"> &#45;3</text>
</g>
<!-- node3 -->
<g id="node3" class="node">
<title>node3</title>
<ellipse fill="none" stroke="black" cx="27" cy="-91" rx="27" ry="18"/>
<text text-anchor="middle" x="27" y="-87.3" font-family="Times,serif" font-size="14.00">3</text>
</g>
<!-- node2&#45;&#45;node3 -->
<g id="edge3" class="edge">
<title>node2&#45;&#45;node3</title>
<path fill="none" stroke="black" d="M86.13,-161.8C73.02,-146.33 52.83,-122.49 39.76,-107.06"/>
<text text-anchor="middle" x="77.5" y="-130.8" font-family="Times,serif" font-size="14.00"> &#45;2</text>
</g>
<!-- node4 -->
<g id="node4" class="node">
<title>node4</title>
<ellipse fill="none" stroke="black" cx="99" cy="-91" rx="27" ry="18"/>
<text text-anchor="middle" x="99" y="-87.3" font-family="Times,serif" font-size="14.00">2</text>
</g>
<!-- node2&#45;&#45;node4 -->
<g id="edge4" class="edge">
<title>node2&#45;&#45;node4</title>
<path fill="none" stroke="black" d="M99,-159.8C99,-145.05 99,-123.92 99,-109.18"/>
<text text-anchor="middle" x="108.5" y="-130.8" font-family="Times,serif" font-size="14.00"> &#45;3</text>
</g>
<!-- n -->
<g id="node8" class="node">
<title>n</title>
<ellipse fill="none" stroke="black" cx="134" cy="-18" rx="27" ry="18"/>
<text text-anchor="middle" x="134" y="-14.3" font-family="Times,serif" font-size="14.00">n</text>
</g>
<!-- node3&#45;&#45;n -->
<g id="edge10" class="edge">
<title>node3&#45;&#45;n</title>
<path fill="none" stroke="black" stroke-dasharray="1,5" d="M45.64,-77.63C65.28,-64.6 96.02,-44.2 115.58,-31.23"/>
</g>
<!-- node4&#45;&#45;n -->
<g id="edge7" class="edge">
<title>node4&#45;&#45;n</title>
<path fill="none" stroke="black" stroke-dasharray="1,5" d="M107.12,-73.53C112.77,-62.06 120.28,-46.83 125.93,-35.38"/>
</g>
<!-- node6 -->
<g id="node6" class="node">
<title>node6</title>
<ellipse fill="none" stroke="black" cx="171" cy="-91" rx="27" ry="18"/>
<text text-anchor="middle" x="171" y="-87.3" font-family="Times,serif" font-size="14.00">2</text>
</g>
<!-- node5&#45;&#45;node6 -->
<g id="edge5" class="edge">
<title>node5&#45;&#45;node6</title>
<path fill="none" stroke="black" d="M171,-159.8C171,-145.05 171,-123.92 171,-109.18"/>
<text text-anchor="middle" x="182.5" y="-130.8" font-family="Times,serif" font-size="14.00"> &#160;&#45;2</text>
</g>
<!-- node7 -->
<g id="node7" class="node">
<title>node7</title>
<ellipse fill="none" stroke="black" cx="243" cy="-91" rx="27" ry="18"/>
<text text-anchor="middle" x="243" y="-87.3" font-family="Times,serif" font-size="14.00">1</text>
</g>
<!-- node5&#45;&#45;node7 -->
<g id="edge6" class="edge">
<title>node5&#45;&#45;node7</title>
<path fill="none" stroke="black" d="M183.87,-161.8C196.98,-146.33 217.17,-122.49 230.24,-107.06"/>
<text text-anchor="middle" x="220.5" y="-130.8" font-family="Times,serif" font-size="14.00"> &#45;3</text>
</g>
<!-- node6&#45;&#45;n -->
<g id="edge8" class="edge">
<title>node6&#45;&#45;n</title>
<path fill="none" stroke="black" stroke-dasharray="1,5" d="M162.6,-73.89C156.63,-62.43 148.64,-47.09 142.62,-35.54"/>
</g>
<!-- node7&#45;&#45;n -->
<g id="edge9" class="edge">
<title>node7&#45;&#45;n</title>
<path fill="none" stroke="black" stroke-dasharray="1,5" d="M224.01,-77.63C204.01,-64.6 172.69,-44.2 152.77,-31.23"/>
</g>
</g>
</svg>
